<?xml version="1.0" encoding="UTF-8"?>
<svg version="1.1" xmlns="http://www.w3.org/2000/svg" width="32" height="32">
<path d="M0 0 C1.27746094 -0.00128906 2.55492187 -0.00257812 3.87109375 -0.00390625 C8.90962247 0.76920133 12.03283572 2.67709984 15.2421875 6.6328125 C15.63664062 7.31085937 16.03109375 7.98890625 16.4375 8.6875 C16.84742187 9.37070313 17.25734375 10.05390625 17.6796875 10.7578125 C18.5625 12.5625 18.5625 12.5625 18.5625 14.5625 C17.9025 14.5625 17.2425 14.5625 16.5625 14.5625 C16.8925 15.26375 17.2225 15.965 17.5625 16.6875 C18.67636866 19.88987239 18.93648428 22.19664152 18.5625 25.5625 C14.74648858 28.10650761 11.60835144 27.89366914 7.1875 27.875 C6.05441406 27.89916992 6.05441406 27.89916992 4.8984375 27.92382812 C0.27298959 27.92787135 -2.66292361 27.50058602 -6.4375 24.5625 C-9.82072129 21.02549592 -12.0844057 18.50582019 -12.4375 13.5625 C-12.51097656 12.93085938 -12.58445312 12.29921875 -12.66015625 11.6484375 C-12.71042969 10.96007813 -12.76070312 10.27171875 -12.8125 9.5625 C-12.86148437 8.923125 -12.91046875 8.28375 -12.9609375 7.625 C-11.27376899 0.97705245 -6.07058458 -0.10392743 0 0 Z M3.5625 4.5625 C3.5625 5.5525 3.5625 6.5425 3.5625 7.5625 C4.2225 7.5625 4.8825 7.5625 5.5625 7.5625 C5.5625 6.5725 5.5625 5.5825 5.5625 4.5625 C4.9025 4.5625 4.2425 4.5625 3.5625 4.5625 Z M-8.4375 9.5625 C-7.4375 11.5625 -7.4375 11.5625 -7.4375 11.5625 Z M3.5625 9.5625 C3.8925 10.5525 4.2225 11.5425 4.5625 12.5625 C5.2225 11.5725 5.8825 10.5825 6.5625 9.5625 C5.5725 9.5625 4.5825 9.5625 3.5625 9.5625 Z M9.5625 14.5625 C9.5625 15.2225 9.5625 15.8825 9.5625 16.5625 C10.2225 16.5625 10.8825 16.5625 11.5625 16.5625 C11.5625 15.9025 11.5625 15.2425 11.5625 14.5625 C10.9025 14.5625 10.2425 14.5625 9.5625 14.5625 Z M13.5625 14.5625 C14.5625 17.5625 14.5625 17.5625 14.5625 17.5625 Z M-0.4375 20.5625 C-0.1075 21.5525 0.2225 22.5425 0.5625 23.5625 C0.8925 22.5725 1.2225 21.5825 1.5625 20.5625 C0.9025 20.5625 0.2425 20.5625 -0.4375 20.5625 Z M13.5625 21.5625 C13.2325 22.5525 12.9025 23.5425 12.5625 24.5625 C11.5725 25.0575 11.5725 25.0575 10.5625 25.5625 C12.54741642 25.29573796 12.54741642 25.29573796 14.5625 24.5625 C14.8925 23.5725 15.2225 22.5825 15.5625 21.5625 C14.9025 21.5625 14.2425 21.5625 13.5625 21.5625 Z " fill="#1C160E" transform="translate(12.4375,2.4375)"/>
<path d="M0 0 C4.5655354 -0.36524283 8.03214062 -0.44670433 12.25 1.5 C15.6349511 4.57722827 17.99067734 7.8924466 20 12 C20 12.66 20 13.32 20 14 C19.34 14 18.68 14 18 14 C18.33 14.70125 18.66 15.4025 19 16.125 C20.11386866 19.32737239 20.37398428 21.63414152 20 25 C16.18398858 27.54400761 13.04585144 27.33116914 8.625 27.3125 C7.49191406 27.33666992 7.49191406 27.33666992 6.3359375 27.36132812 C0.8061229 27.36616188 -2.43304035 26.32514461 -6.6171875 22.53515625 C-7.875 21.0625 -7.875 21.0625 -10 18 C-9.8125 15.625 -9.8125 15.625 -9 14 C-8.01 15.485 -8.01 15.485 -7 17 C-4.94074861 17.72382467 -4.94074861 17.72382467 -3 18 C-2.67 19.32 -2.34 20.64 -2 22 C-1.67 20.68 -1.34 19.36 -1 18 C0.32 18 1.64 18 3 18 C3 17.34 3 16.68 3 16 C3.66 16 4.32 16 5 16 C5.66 17.32 6.32 18.64 7 20 C6.34 20 5.68 20 5 20 C5 20.99 5 21.98 5 23 C5.99 22.67 6.98 22.34 8 22 C8.33 22.33 8.66 22.66 9 23 C9.2475 22.360625 9.495 21.72125 9.75 21.0625 C11 19 11 19 13.125 18.25 C14.053125 18.12625 14.053125 18.12625 15 18 C14.67 17.67 14.34 17.34 14 17 C13.67 16.01 13.34 15.02 13 14 C12.34 14 11.68 14 11 14 C11 13.34 11 12.68 11 12 C11.66 12 12.32 12 13 12 C13 11.01 13 10.02 13 9 C12.34 9 11.68 9 11 9 C11 7.35 11 5.7 11 4 C10.01 4 9.02 4 8 4 C8 5.65 8 7.3 8 9 C7.01 9 6.02 9 5 9 C4.67 9.99 4.34 10.98 4 12 C1.87028825 7.49002217 1.87028825 7.49002217 2.5625 4.875 C2.706875 4.25625 2.85125 3.6375 3 3 C1.56637982 1.3735854 1.56637982 1.3735854 0 0 Z M5 4 C5 4.99 5 5.98 5 7 C5.66 7 6.32 7 7 7 C7 6.01 7 5.02 7 4 C6.34 4 5.68 4 5 4 Z M1 20 C1.33 20.99 1.66 21.98 2 23 C2.33 22.01 2.66 21.02 3 20 C2.34 20 1.68 20 1 20 Z M15 21 C14.67 21.99 14.34 22.98 14 24 C13.01 24.495 13.01 24.495 12 25 C13.98491642 24.73323796 13.98491642 24.73323796 16 24 C16.33 23.01 16.66 22.02 17 21 C16.34 21 15.68 21 15 21 Z " fill="#E2AF74" transform="translate(11,3)"/>
<path d="M0 0 C0.4125 0.474375 0.825 0.94875 1.25 1.4375 C3.182185 3.16266518 4.48192275 3.56584875 7 4 C7.33 5.32 7.66 6.64 8 8 C8.33 6.68 8.66 5.36 9 4 C10.32 4 11.64 4 13 4 C13 3.34 13 2.68 13 2 C13.66 2 14.32 2 15 2 C15.66 3.32 16.32 4.64 17 6 C16.34 6 15.68 6 15 6 C15 6.99 15 7.98 15 9 C15.99 8.67 16.98 8.34 18 8 C18.33 8.33 18.66 8.66 19 9 C19.3403125 8.0409375 19.3403125 8.0409375 19.6875 7.0625 C21 5 21 5 23.625 4.25 C24.800625 4.12625 24.800625 4.12625 26 4 C25.43307299 7.28817667 24.5440846 8.84731303 22 11 C17.9473759 13.7017494 14.75417786 13.52917527 10 13 C5.4173314 11.12527194 2.82491098 7.95487537 0 4 C0 2.68 0 1.36 0 0 Z M11 6 C11.33 6.99 11.66 7.98 12 9 C12.33 8.01 12.66 7.02 13 6 C12.34 6 11.68 6 11 6 Z " fill="#E6B275" transform="translate(1,17)"/>
<path d="M0 0 C2.375 1.5 2.375 1.5 4 3 C3.67 3.99 3.34 4.98 3 6 C2.443125 5.2265625 2.443125 5.2265625 1.875 4.4375 C-0.03173152 2.63680017 -0.03173152 2.63680017 -3.1875 3.3125 C-4.5796875 3.6528125 -4.5796875 3.6528125 -6 4 C-6.66 7.3 -7.32 10.6 -8 14 C-8.99 13.67 -9.98 13.34 -11 13 C-11.60552093 5.85485307 -11.60552093 5.85485307 -8.875 2 C-5.49736169 -0.34966143 -4.02695637 -0.68543938 0 0 Z " fill="#090604" transform="translate(11,3)"/>
<path d="M0 0 C0.7425 0.2475 1.485 0.495 2.25 0.75 C1.92 1.74 1.59 2.73 1.25 3.75 C1.25 3.09 1.25 2.43 1.25 1.75 C0.26 1.75 -0.73 1.75 -1.75 1.75 C-1.75 5.05 -1.75 8.35 -1.75 11.75 C-2.74 12.08 -3.73 12.41 -4.75 12.75 C-6.59753138 9.63229079 -7.29282688 7.36884589 -6.75 3.75 C-4.5940554 0.7157076 -3.79490657 -0.34499151 0 0 Z M-5.75 6.75 C-4.75 8.75 -4.75 8.75 -4.75 8.75 Z " fill="#E3B074" transform="translate(9.75,5.25)"/>
<path d="M0 0 C0.99 0.66 1.98 1.32 3 2 C3.375 5 3.375 5 3 8 C-0.08888522 10.05925681 -0.70935927 10.2390374 -4.1875 10.125 C-6.0746875 10.063125 -6.0746875 10.063125 -8 10 C-7 8 -7 8 -3.9375 6.875 C-2.4834375 6.441875 -2.4834375 6.441875 -1 6 C-1.020625 5.195625 -1.04125 4.39125 -1.0625 3.5625 C-1 1 -1 1 0 0 Z " fill="#050302" transform="translate(28,20)"/>
<path d="M0 0 C0 0.66 0 1.32 0 2 C0.99 2.33 1.98 2.66 3 3 C2.67 4.32 2.34 5.64 2 7 C1.34 6.34 0.68 5.68 0 5 C-0.99 5.495 -0.99 5.495 -2 6 C-2 5.01 -2 4.02 -2 3 C-2.66 3 -3.32 3 -4 3 C-4 2.34 -4 1.68 -4 1 C-2 0 -2 0 0 0 Z " fill="#E6B276" transform="translate(26,14)"/>
<path d="M0 0 C0.33 0 0.66 0 1 0 C1 4.62 1 9.24 1 14 C0.67 12.68 0.34 11.36 0 10 C-0.99 10 -1.98 10 -3 10 C-2.690625 9.46375 -2.38125 8.9275 -2.0625 8.375 C-0.82172561 5.6015043 -0.4090325 2.99957163 0 0 Z " fill="#735839" transform="translate(19,7)"/>
<path d="M0 0 C2.4375 0.8125 2.4375 0.8125 5 2 C5.33 2.99 5.66 3.98 6 5 C4.125 4.75 4.125 4.75 2 4 C0.75 1.9375 0.75 1.9375 0 0 Z " fill="#493925" transform="translate(25,12)"/>
</svg>
